<svg width="64" height="64" viewBox="0 0 64 64" fill="none" xmlns="http://www.w3.org/2000/svg">
<path d="M9.40869 40.8171H20.5915V44.103H17.3834V51.9999H12.7236V44.103H9.40869V40.8171Z" fill="white"/>
<path d="M25.9268 45.3354L23.6427 51.9999H19.3013L23.5592 40.8171H28.2741L32.6346 51.9999H28.2398L25.9268 45.3354Z" fill="white"/>
<path d="M31.7744 40.8171H42.5271V44.103H39.4432V51.9999H34.9627V44.103H31.7744V40.8171Z" fill="white"/>
<path d="M48.2939 45.3354L46.0087 51.9999H41.6667L45.9265 40.8171H50.6406L55.0001 51.9999H50.6064L48.2939 45.3354Z" fill="white"/>
<path fill-rule="evenodd" clip-rule="evenodd" d="M48.5485 19.6516C48.1341 18.8468 47.5882 18.0753 46.9091 17.3519C45.3831 15.7254 43.23 14.3719 40.6819 13.4385C38.1129 12.4978 35.1828 12 32.2051 12C29.2274 12 26.2973 12.4978 23.7296 13.4385C21.1802 14.372 19.027 15.7255 17.501 17.3519C16.8224 18.0752 16.2747 18.8477 15.8604 19.653C19.1776 18.8609 24.8518 17.815 30.1205 17.7044C30.6287 17.6936 30.9786 17.8544 31.209 18.1427C31.4897 18.4939 31.4686 19.7456 31.4617 20.3056L31.3119 34.7797C31.6086 34.7894 31.9067 34.7957 32.2051 34.7957C32.506 34.7957 32.8057 34.7908 33.1024 34.7811L32.9527 20.3055C32.9449 19.7456 32.9232 18.4938 33.2048 18.1426C33.4357 17.8544 33.7844 17.6936 34.2925 17.7043C39.559 17.814 45.232 18.8601 48.5485 19.6516Z" fill="white"/>
<path fill-rule="evenodd" clip-rule="evenodd" d="M49.183 21.6542C44.3236 20.5653 41.0785 20.3639 37.8765 20.1877C35.0855 20.0339 35.0491 21.0219 35.3277 22.9099C35.3459 23.0252 35.3683 23.1704 35.3949 23.336C36.3311 28.8327 37.4969 33.5628 37.6972 34.3657C44.5015 32.8238 49.4086 28.549 49.4086 23.5273C49.4086 22.895 49.3316 22.2685 49.183 21.6542Z" fill="white"/>
<path fill-rule="evenodd" clip-rule="evenodd" d="M29.081 22.9084C29.3598 21.0215 29.3241 20.034 26.5341 20.1877C23.3318 20.3638 20.0867 20.5649 15.2267 21.6541C15.0783 22.268 15.0002 22.8933 15.0002 23.5253C15.0002 25.6945 15.8907 27.7935 17.5757 29.5968C19.1027 31.2301 21.2573 32.5892 23.8082 33.5272C24.7315 33.8659 25.7058 34.1436 26.7094 34.3657C26.8978 33.614 28.09 28.7881 29.0362 23.1963C29.0536 23.0892 29.0698 22.9903 29.081 22.9084Z" fill="white"/>
</svg>
